<?xml version="1.0" encoding="UTF-8"?>
<svg xmlns="http://www.w3.org/2000/svg" version="1.1" viewBox="250 1060 2650 920">
  <defs>
    <!-- Chrome/silver metallic gradient for AERO text -->
    <linearGradient id="chromeText" x1="0" y1="0" x2="0" y2="1">
      <stop offset="0%" stop-color="#e8e8e8" />
      <stop offset="20%" stop-color="#b0b0b0" />
      <stop offset="45%" stop-color="#f0f0f0" />
      <stop offset="55%" stop-color="#ffffff" />
      <stop offset="80%" stop-color="#c0c0c0" />
      <stop offset="100%" stop-color="#a0a0a0" />
    </linearGradient>
    <!-- Horizontal gradient for car silhouette: chrome to blue -->
    <linearGradient id="carGrad" x1="0" y1="0" x2="1" y2="0">
      <stop offset="0%" stop-color="#a8a8a8" />
      <stop offset="25%" stop-color="#d0d0d0" />
      <stop offset="45%" stop-color="#c0c0c0" />
      <stop offset="65%" stop-color="#7099d0" />
      <stop offset="85%" stop-color="#3b82f6" />
      <stop offset="100%" stop-color="#2563eb" />
    </linearGradient>
  </defs>
  <!-- ADIX text — blue -->
  <g fill="#2563eb">
    <path d="M2227.94,1804.91c-9.49,84.27-72.5,133.25-153.09,133.52l-140.29.48,36.64-197.76,12.2-64.58,124.06.32c34,.09,80.57,15.57,101.8,44.95,17.5,24.21,22.1,52.7,18.68,83.08ZM2119.98,1852.79c19.67-21.61,26.42-52.05,17.82-78.68-11.93-36.95-50.76-30.27-81.39-30.31l-23.53,127.34,44.8-.22c15.58-.08,31.2-5.95,42.3-18.14Z"/>
    <path d="M1770.26,1891.84l-99.3.34-25.46,46.93-90.26-.2,158.1-262.37,93.9.15,62.28,261.98-88.83.53-10.44-47.36ZM1758.99,1827.67l-14.22-65.68-39.42,66.47,53.64-.8Z"/>
    <path d="M2626.68,1939.54l-35.21-72.49-55.46,67.87c-2.98,2.26-8.79,4.49-12.87,4.46l-86.79-.6c17-23.27,33.67-41.79,51.22-62.68l61.65-73.39-61.55-125.58,91.74-.61,31.53,68.17,56.7-68.17,92.25.6-108.14,129.13,68.77,132.11-93.83,1.2Z"/>
    <path d="M2280.54,1939.26c11.8-79.48,34.49-182.75,48.12-262.62l86.58-.04-47.62,262.1-87.08.55Z"/>
  </g>
  <!-- AERO text — chrome/silver gradient -->
  <g fill="url(#chromeText)">
    <path d="M1062.31,1939.38l-35.11-69.73c-7.66-2.27-15.21-2.33-23.04-.31l-13.17,69.79-86.18.07,29.38-161.47,19.19-101.26,129.39.55c18.67.08,36.42,5.81,52.41,13.18,26.84,12.65,41.61,37.97,40.88,67.7,1.14,43.9-22.89,83.45-64.61,99.63l43.11,81.36-92.25.49ZM1057.16,1801.68c12.55-.09,23.59-7.46,27.93-16.1,5.15-10.25,7.58-23.28-.1-32.56-9.82-11.86-44.93-11.71-58.69-9.37l-10.41,58.31,41.27-.29Z"/>
    <path d="M1394.35,1941.66c-36.44,4.86-70.39,1.43-101.5-14.99-32.37-17.08-53.9-46.18-59.37-82.56-9.36-62.15,21.3-121.29,77.28-151.08,74.13-39.45,189.78-24.7,211.51,63.59,21.51,87.38-38.08,173.05-127.92,185.03ZM1363.04,1873.14c27.03,3.28,51.12-8.54,64.49-31.35,18.22-31.08,19.69-87.65-22.27-97.77-21.08-5.08-44.68-.09-60.61,15.2-17.52,16.82-23.2,40.83-23.53,64.66-.34,25.2,15.79,46.09,41.91,49.26Z"/>
    <path d="M833.13,1774.08l-10.47,63.19-107.78.11-6.51,35.64,129.75.23-12.05,65.98-214.75.03,46.64-253.76c.63-3.45,2.83-6.94,5.11-9.2l204.49.13-11.94,65.9-39.3.37-51.82.28-31.71.92-5.87,30.04,106.2.16Z"/>
    <path d="M350.23,1891.91l-26.05,47.24-91.35-.18,24.28-40.2,133.45-217.21c3.32-2.8,8.49-5.4,12.62-5.37l80.91.52,63.58,262.15-88.43.35-10.61-47.27-98.41-.02ZM437.67,1827.73l-13.33-68.91-38.48,69.67,51.81-.76Z"/>
  </g>
  <!-- Car silhouette — chrome-to-blue gradient -->
  <g fill="url(#carGrad)">
    <path d="M546.93,1450.13c-4.45,0-65.23,1.32-48.93,15.96,34.6,31.07,21.33,69.33,26.71,77.6,1.37,2.1,6.5,2.12,10.11,2.28l116.89,5.36,262.16,10.22c35.5,1.38,68.35,2.11,102.36,5.33-7.01,1.44-13.96,2.78-20.44,2.86l-138.91,1.58-337.57.98c-9.75-3.19-18.41-14.44-23.64-22.77-16.73-26.67-43.89-42.74-72.95-46.36-82.13-10.22-126.23,89.58-125.12,95.83,1.68,9.44,169.71,19.18,188.63,20.31l278.04,16.58,170.99,9.86c-17.77,5.88-34.39,3.83-53.52,3.85l-597.87.47c-5.98,0-8.56-9.21-9.06-13.56-3.34-28.87,2.73-55.91,14.27-82.58,37.8-87.35,119.44-131.43,209.87-149.42,80.63-16.04,161.21-18.07,243.41-14.25,53.48,2.49,104.42,4.64,157.56,1.34,127.78-7.95,243.32-49.48,369.75-70.32,139.71-23.03,266.45-29.59,398.7,29.45,20.84,9.31,39.78,21.01,58.31,34.09,28.02,19.77,79.08,72.98,75.48,112.76-49.08-42.09-59.12-51.75-116.56-80.63s-119.98-41.99-183.07-32.7c55.13,19.22,101.72,47.53,134.79,93.45,17.94,24.91,29.59,52.35,41.05,80.58,3.37,8.31,8.51,13.6,17.89,15,29.42,4.4,57.72,7.56,87.86,9.84l250.75,19.03c-18.45,6.16-37.42,3.74-56.95,4.16l-129.07,2.8-106.47,1.81-49.96,1.47c-7.81.23-14.88-2.17-18.52-9.55-29.95-60.66-76.69-106.7-134.37-141.06-34.22-20.38-69.04-33.22-108.24-41.54-57.46-12.2-113.48-10.75-170.23,5.92-126.81,37.25-224.54,57.81-358.91,54.22-78.27-2.1-153.83-10.09-231.44-20.11-42.03-5.42-81.67-10.19-123.83-10.15Z"/>
    <path d="M1549.73,1180.59c-52.49-23.88-101.83-29.16-162.05-26.38,5.8,4.11,11.26,6.56,17.82,8.69,37.29,12.07,71.32,27.99,106.47,44.85l73.35,35.18c37.63,18.05,77.83,28.97,118.38,38.95,15.04,3.7,28.03,6.44,41.61,14.12-15.52,12.77-94.01-.94-114.77-4.48-30.53-5.2-58.83-10.83-88.56-19.7-101.74-30.38-328.66-94.05-425.94-62.22-23.97,7.84-45.92,22.09-63.08,40.35-23.95,25.5-43.7,53.1-59.19,84.08-3.61,7.22-6.12,12.4-11.13,19.03-11.65-18.23,17.79-82.01,26.98-99.89l15.35-29.86c-54.21,9.24-137.55,54.01-181.93,86.54l-65.92,48.34c-7.74-15.66-9.87-31.74-21.84-41.99-10.96-9.39-28.87-5.26-41.63-2.66-26.21,5.36-24.49,30.38-27.15,36.02s-23.42-13.04-19.9-34.82c4.39-27.16,59.14-35.14,84.16-29.81,17.83,3.8,22.95,26.27,31.28,29.75,2.15.9,8.6-.4,10.45-2.07,184.65-166.52,381.66-201.97,624.91-194.11,145.07,4.69,286.73,24.85,427.65,59.28,70.58,17.25,137.77,39.16,207.5,58.02l110.7,29.94c34.24,9.26,66.21,15.32,102.05,18.09l386.22,29.86c22.15,1.71,41.71,3.09,64.31,7.95l-106.35,2.06-162.29.56c-9.99.03-19.07-2.23-29.22.27,31.02,15.31,84,32.73,93.45,71.22-23.61-14.14-45.06-24.69-70.67-31.03-49.17-12.17-98.1-21.15-149.47-23.44-73.57-3.27-144.83,4.47-216.96,18.35-67.7,13.03-132.09,31.79-198.57,48.32-15.63,3.89-29.02,3.55-42.88-4.05-23.17-12.71-45.67-25.5-68.27-39.07l-63.35-38.03c22.89,2.26,41.01,10.03,61.78,15.72,28.52,7.81,57.16,14.79,87.31,13.55,13.64-.56,28.17-5.17,41.34-9.89,71.34-25.57,142.77-40.11,220.72-48.66-58.09-26.37-116.08-45.78-178.14-60.05,6.99,7.3,15.24,12.35,23.86,17.29,13.57,8,25.04,16.26,36.12,28.97-5.93,2.55-12.12,4.79-18.56,4.98-51.12,1.49-100.6-1.49-151.35-9.81-102.96-16.89-181.75-56.04-274.62-98.29Z"/>
    <path d="M2240.44,1430.93c-14.47-.95-26.33,3.59-36.71,12.16-.03,1.68,3.37,5.67,5.68,5.96l167.94,21.12c-56.26,7.69-110.29,3.1-165.71,2.48-20.5-4.18-32.39,15.39-43.68-.86l-42.45-61.09c-1.72-2.48-2.09-9.24-1.14-11.81,1.08-2.95,5.96-7.19,9.83-7.98,108.49-22.07,199.21-32.97,309.65.6-14.59,2.69-29.36.78-44.63-.39-40.66-3.1-79.44-.23-119.26,8.87,4.35,2.11,9.95,4.04,15.23,4.74l65.54,8.58c29.3,3.84,57.82,5.12,88.13,14.31-45.54,9.12-90.01,11.07-134.83,8.13l-73.58-4.83Z"/>
    <path d="M2139.96,1574.82c-7.31-.02-138.03-19.99-148.69-29.39,12.54-1.07,24.02-.11,36.75.15l84.93,1.68,69.72,2.05c84.16,2.47,245.58-1.91,323.5-29.64l29.9-10.64c-7.54,14.32-20.35,20.53-33.3,25.49l-42.78,16.36,256.56,21.04c4.8.39,8.41.61,9.78,4.43l-586.37-1.52Z"/>
    <path d="M2556.03,1460.69c-10.96.05-17.36,3.49-25.67,6.87-16.38,6.67-28.07-35.74-43.92-15.69l-19.35,24.48c-1.93,2.44-7.99,4.82-10.58,4.06-10.18-2.98-7.01-37.73,33.87-64.97,48.14-32.08,51.97,3.42,73.55,5.84l92.08,10.31,212.89,25.32c-23.22,2.48-45.47,2.57-69.52,2.68l-243.35,1.1Z"/>
    <path d="M2131.68,1526.38c-40.27-19.21-62.7-38.79-109.52-41.67-61.53-3.78-72.64,48.2-96.39,31.18-11.86-8.5-22.24-27.41-16.79-42.83,8.26-23.36,28.39-43.11,51.31-51.78,17.96-6.79,39.4-3.53,56.36,4.99,39.58,19.88,92.56,59.84,115.03,100.1Z"/>
  </g>
</svg>
